<?xml version="1.0" encoding="UTF-8"?>
<svg xmlns="http://www.w3.org/2000/svg" width="104" height="31" viewBox="0 0 104 31" fill="none">
  <path d="M45.6471 30.0886L55.9709 15.9286L45.7317 1.85327H54.222L60.202 10.0615L66.2101 1.85327H74.7004L64.4612 15.9286L74.785 30.0886H66.2947L60.202 21.7393L54.1374 30.0886H45.6471Z" fill="#06114B"></path>
  <path d="M0 30.0883V1.70656H6.92516V4.23253C7.89014 3.21079 9.04433 2.40664 10.3877 1.82008C11.7311 1.2146 13.1786 0.911865 14.7301 0.911865C16.698 0.911865 18.5049 1.37543 20.1511 2.30257C21.8161 3.22971 23.1406 4.46905 24.1245 6.02058C25.1273 4.46905 26.4518 3.22971 28.098 2.30257C29.7441 1.37543 31.5511 0.911865 33.5189 0.911865C35.6002 0.911865 37.4829 1.42274 39.1669 2.44448C40.8698 3.4473 42.2226 4.80017 43.2255 6.50308C44.2472 8.18706 44.7581 10.0697 44.7581 12.1511V30.0883H37.8329V13.9959C37.8329 12.8984 37.5586 11.8956 37.0098 10.9874C36.4801 10.0603 35.761 9.32233 34.8528 8.77362C33.9635 8.20598 32.9607 7.92216 31.8444 7.92216C30.728 7.92216 29.7157 8.19652 28.8075 8.74524C27.9182 9.27503 27.1992 9.99403 26.6505 10.9023C26.1018 11.8105 25.8274 12.8417 25.8274 13.9959V30.0883H18.9023V13.9959C18.9023 12.8417 18.6374 11.8105 18.1076 10.9023C17.5778 9.99403 16.8588 9.27503 15.9506 8.74524C15.0423 8.19652 14.0301 7.92216 12.9137 7.92216C11.8163 7.92216 10.8135 8.20598 9.90524 8.77362C8.99703 9.32233 8.26856 10.0603 7.71985 10.9874C7.19005 11.8956 6.92516 12.8984 6.92516 13.9959V30.0883H0Z" fill="#06114B"></path>
  <path fill-rule="evenodd" clip-rule="evenodd" d="M104 15.5003C104 23.5572 97.4686 30.0886 89.4117 30.0886C81.3549 30.0886 74.8235 23.5572 74.8235 15.5003C74.8235 7.44348 81.3549 0.912109 89.4117 0.912109C97.4686 0.912109 104 7.44348 104 15.5003ZM99.4614 15.8245C99.4614 21.1958 95.1072 25.55 89.7359 25.55C84.3647 25.55 80.0105 21.1958 80.0105 15.8245C80.0105 10.4533 84.3647 6.09903 89.7359 6.09903C95.1072 6.09903 99.4614 10.4533 99.4614 15.8245ZM94.2744 13.8794C94.8256 13.8794 95.3366 13.7075 95.7568 13.4143C96.0553 14.1594 96.2196 14.9728 96.2196 15.8245C96.2196 19.4053 93.3167 22.3082 89.7359 22.3082C86.1551 22.3082 83.2523 19.4053 83.2523 15.8245C83.2523 12.2437 86.1551 9.34086 89.7359 9.34086C90.5876 9.34086 91.401 9.50509 92.1461 9.80361C91.8529 10.2238 91.681 10.7348 91.681 11.286C91.681 12.7183 92.8421 13.8794 94.2744 13.8794Z" fill="#06114B"></path>
</svg>
